M48
; DRILL file {KiCad 7.0.8} date Sat Dec 16 16:38:24 2023
; FORMAT={-:-/ absolute / inch / decimal}
; #@! TF.CreationDate,2023-12-16T16:38:24-08:00
; #@! TF.GenerationSoftware,Kicad,Pcbnew,7.0.8
; #@! TF.FileFunction,Plated,1,2,PTH
FMAT,2
INCH
; #@! TA.AperFunction,Plated,PTH,ViaDrill
T1C0.0177
; #@! TA.AperFunction,Plated,PTH,ViaDrill
T2C0.0236
; #@! TA.AperFunction,Plated,PTH,ComponentDrill
T3C0.0315
; #@! TA.AperFunction,Plated,PTH,ComponentDrill
T4C0.0354
; #@! TA.AperFunction,Plated,PTH,ComponentDrill
T5C0.0394
; #@! TA.AperFunction,Plated,PTH,ComponentDrill
T6C0.0402
; #@! TA.AperFunction,Plated,PTH,ComponentDrill
T7C0.0433
; #@! TA.AperFunction,Plated,PTH,ComponentDrill
T8C0.0984
%
G90
G05
T1
X4.9166Y-4.0659
X5.7371Y-2.9397
X5.8965Y-3.1338
X6.1817Y-3.8229
X6.3913Y-2.9883
X6.5317Y-3.784
X6.7637Y-3.697
X6.8421Y-4.5899
T2
X6.3602Y-4.8834
T3
X3.9516Y-3.675
X4.1484Y-3.675
X4.5656Y-3.325
X4.5656Y-3.725
X4.725Y-3.325
X4.725Y-3.725
X4.8Y-3.9173
X4.8Y-4.0173
X4.8Y-4.1173
X4.8Y-4.2173
X4.8Y-4.3173
X4.8Y-4.4173
X4.8Y-4.5173
X4.8Y-4.6173
X4.8Y-4.7173
X4.8Y-4.8173
X5.1Y-3.9173
X5.1Y-4.0173
X5.1Y-4.1173
X5.1Y-4.2173
X5.1Y-4.3173
X5.1Y-4.4173
X5.1Y-4.5173
X5.1Y-4.6173
X5.1Y-4.7173
X5.1Y-4.8173
X5.3Y-3.9173
X5.3Y-4.0173
X5.3Y-4.1173
X5.3Y-4.2173
X5.3Y-4.3173
X5.3Y-4.4173
X5.3Y-4.5173
X5.3Y-4.6173
X5.3Y-4.7173
X5.3Y-4.8173
X5.6Y-3.9173
X5.6Y-4.0173
X5.6Y-4.1173
X5.6Y-4.2173
X5.6Y-4.3173
X5.6Y-4.4173
X5.6Y-4.5173
X5.6Y-4.6173
X5.6Y-4.7173
X5.6Y-4.8173
X6.94Y-4.2411
X6.94Y-4.3911
X6.94Y-4.5411
X6.94Y-4.7006
X6.94Y-4.86
X7.34Y-4.2411
X7.34Y-4.3911
X7.34Y-4.5411
X7.34Y-4.7006
X7.34Y-4.86
X7.5348Y-3.8348
X7.5348Y-3.9348
X7.5348Y-4.0348
X7.5348Y-4.1348
X7.5348Y-4.2348
X7.5348Y-4.3348
X7.5348Y-4.4348
X7.5348Y-4.5348
X7.5348Y-4.6348
X7.5348Y-4.7348
X7.5348Y-4.8348
X7.5348Y-4.9348
X8.1348Y-3.8348
X8.1348Y-3.9348
X8.1348Y-4.0348
X8.1348Y-4.1348
X8.1348Y-4.2348
X8.1348Y-4.3348
X8.1348Y-4.4348
X8.1348Y-4.5348
X8.1348Y-4.6348
X8.1348Y-4.7348
X8.1348Y-4.8348
X8.1348Y-4.9348
T4
X3.85Y-3.325
X3.95Y-3.325
X3.9531Y-2.775
X3.9531Y-3.0112
X4.0516Y-2.775
X4.0516Y-3.0112
X4.1498Y-3.325
X4.15Y-2.775
X4.15Y-3.0112
X4.2498Y-3.325
X7.85Y-5.2388
X7.85Y-5.475
X7.9484Y-5.2388
X7.9484Y-5.475
X8.0469Y-5.2388
X8.0469Y-5.475
T5
X4.54Y-3.965
X4.54Y-4.065
X4.54Y-4.165
X4.54Y-4.265
X4.54Y-4.365
X4.54Y-4.465
X4.54Y-4.565
X4.54Y-4.665
X4.54Y-4.765
X6.1257Y-3.9
X6.2257Y-3.9
X6.3257Y-3.9
X6.4257Y-3.9
X7.7Y-3.5
X7.935Y-3.5
X8.035Y-3.5
X8.135Y-3.5
T6
X5.05Y-2.85
X5.05Y-3.55
X5.0591Y-3.1
X5.0591Y-3.2
X5.0591Y-3.3
X5.15Y-2.85
X5.15Y-3.55
X5.25Y-2.85
X5.25Y-3.55
X5.35Y-2.85
X5.35Y-3.55
X5.45Y-2.85
X5.45Y-3.55
X5.55Y-2.85
X5.55Y-3.55
X5.65Y-2.85
X5.65Y-3.55
X5.75Y-2.85
X5.75Y-3.55
X5.85Y-2.85
X5.85Y-3.55
X5.95Y-2.85
X5.95Y-3.55
X6.05Y-2.85
X6.05Y-3.55
X6.15Y-2.85
X6.15Y-3.55
X6.25Y-2.85
X6.25Y-3.55
X6.35Y-2.85
X6.35Y-3.55
X6.45Y-2.85
X6.45Y-3.55
X6.55Y-2.85
X6.55Y-3.55
X6.65Y-2.85
X6.65Y-3.55
X6.75Y-2.85
X6.75Y-3.55
X6.85Y-2.85
X6.85Y-3.55
X6.95Y-2.85
X6.95Y-3.55
T7
X5.4091Y-5.05
X5.4091Y-5.2272
X5.4091Y-5.5114
X5.4091Y-5.6886
X5.665Y-5.05
X5.665Y-5.2272
X5.665Y-5.5114
X5.665Y-5.6886
X5.915Y-5.25
X5.915Y-5.4272
X6.1709Y-5.25
X6.1709Y-5.4272
X6.415Y-5.25
X6.415Y-5.4272
X6.6709Y-5.25
X6.6709Y-5.4272
X6.9091Y-5.25
X6.9091Y-5.4272
X7.012Y-3.8463
X7.012Y-4.0235
X7.165Y-5.25
X7.165Y-5.4272
X7.268Y-3.8463
X7.268Y-4.0235
T8
X3.84Y-3.965
X3.84Y-4.765
T5
G00X4.4527Y-2.9787
M15
G01X4.4527Y-3.0575
M16
G05
G00X4.6771Y-2.9
M15
G01X4.5983Y-2.9
M16
G05
G00X4.6771Y-3.1362
M15
G01X4.5983Y-3.1362
M16
G05
T0
M30
