%TF.GenerationSoftware,KiCad,Pcbnew,7.0.8*%
%TF.CreationDate,2023-12-16T16:38:21-08:00*%
%TF.ProjectId,PicoRAM2090,5069636f-5241-44d3-9230-39302e6b6963,rev?*%
%TF.SameCoordinates,Original*%
%TF.FileFunction,Soldermask,Bot*%
%TF.FilePolarity,Negative*%
%FSLAX46Y46*%
G04 Gerber Fmt 4.6, Leading zero omitted, Abs format (unit mm)*
G04 Created by KiCad (PCBNEW 7.0.8) date 2023-12-16 16:38:21*
%MOMM*%
%LPD*%
G01*
G04 APERTURE LIST*
G04 Aperture macros list*
%AMRoundRect*
0 Rectangle with rounded corners*
0 $1 Rounding radius*
0 $2 $3 $4 $5 $6 $7 $8 $9 X,Y pos of 4 corners*
0 Add a 4 corners polygon primitive as box body*
4,1,4,$2,$3,$4,$5,$6,$7,$8,$9,$2,$3,0*
0 Add four circle primitives for the rounded corners*
1,1,$1+$1,$2,$3*
1,1,$1+$1,$4,$5*
1,1,$1+$1,$6,$7*
1,1,$1+$1,$8,$9*
0 Add four rect primitives between the rounded corners*
20,1,$1+$1,$2,$3,$4,$5,0*
20,1,$1+$1,$4,$5,$6,$7,0*
20,1,$1+$1,$6,$7,$8,$9,0*
20,1,$1+$1,$8,$9,$2,$3,0*%
G04 Aperture macros list end*
%ADD10R,1.700000X1.700000*%
%ADD11C,2.000000*%
%ADD12O,1.800000X1.800000*%
%ADD13O,1.500000X1.500000*%
%ADD14O,1.700000X1.700000*%
%ADD15R,1.600000X1.600000*%
%ADD16O,1.600000X1.600000*%
%ADD17O,1.600000X2.000000*%
%ADD18R,1.800000X1.800000*%
%ADD19C,1.800000*%
%ADD20C,1.600000*%
%ADD21RoundRect,0.102000X0.754000X-0.754000X0.754000X0.754000X-0.754000X0.754000X-0.754000X-0.754000X0*%
%ADD22C,1.712000*%
%ADD23C,3.720000*%
%ADD24R,3.500000X3.500000*%
%ADD25RoundRect,0.750000X-1.000000X0.750000X-1.000000X-0.750000X1.000000X-0.750000X1.000000X0.750000X0*%
%ADD26RoundRect,0.875000X-0.875000X0.875000X-0.875000X-0.875000X0.875000X-0.875000X0.875000X0.875000X0*%
G04 APERTURE END LIST*
D10*
%TO.C,J1*%
X195580000Y-88900000D03*
%TD*%
D11*
%TO.C,BACK1*%
X156741000Y-137850000D03*
X150241000Y-137850000D03*
X156741000Y-133350000D03*
X150241000Y-133350000D03*
%TD*%
%TO.C,OK1*%
X169441000Y-137850000D03*
X162941000Y-137850000D03*
X169441000Y-133350000D03*
X162941000Y-133350000D03*
%TD*%
D12*
%TO.C,U2*%
X176400000Y-78555000D03*
D13*
X173370000Y-78855000D03*
X173370000Y-83705000D03*
D12*
X176400000Y-84005000D03*
D14*
X176530000Y-72390000D03*
X173990000Y-72390000D03*
D10*
X171450000Y-72390000D03*
D14*
X168910000Y-72390000D03*
X166370000Y-72390000D03*
X163830000Y-72390000D03*
X161290000Y-72390000D03*
D10*
X158750000Y-72390000D03*
D14*
X156210000Y-72390000D03*
X153670000Y-72390000D03*
X151130000Y-72390000D03*
X148590000Y-72390000D03*
D10*
X146050000Y-72390000D03*
D14*
X143510000Y-72390000D03*
X140970000Y-72390000D03*
X138430000Y-72390000D03*
X135890000Y-72390000D03*
D10*
X133350000Y-72390000D03*
D14*
X130810000Y-72390000D03*
X128270000Y-72390000D03*
X128270000Y-90170000D03*
X130810000Y-90170000D03*
D10*
X133350000Y-90170000D03*
D14*
X135890000Y-90170000D03*
X138430000Y-90170000D03*
X140970000Y-90170000D03*
X143510000Y-90170000D03*
D10*
X146050000Y-90170000D03*
D14*
X148590000Y-90170000D03*
X151130000Y-90170000D03*
X153670000Y-90170000D03*
X156210000Y-90170000D03*
D10*
X158750000Y-90170000D03*
D14*
X161290000Y-90170000D03*
X163830000Y-90170000D03*
X166370000Y-90170000D03*
X168910000Y-90170000D03*
D10*
X171450000Y-90170000D03*
D14*
X173990000Y-90170000D03*
X176530000Y-90170000D03*
X128500000Y-78740000D03*
D10*
X128500000Y-81280000D03*
D14*
X128500000Y-83820000D03*
%TD*%
D15*
%TO.C,U1*%
X191384000Y-97404000D03*
D16*
X191384000Y-99944000D03*
X191384000Y-102484000D03*
X191384000Y-105024000D03*
X191384000Y-107564000D03*
X191384000Y-110104000D03*
X191384000Y-112644000D03*
X191384000Y-115184000D03*
X191384000Y-117724000D03*
X191384000Y-120264000D03*
X191384000Y-122804000D03*
X191384000Y-125344000D03*
X206624000Y-125344000D03*
X206624000Y-122804000D03*
X206624000Y-120264000D03*
X206624000Y-117724000D03*
X206624000Y-115184000D03*
X206624000Y-112644000D03*
X206624000Y-110104000D03*
X206624000Y-107564000D03*
X206624000Y-105024000D03*
X206624000Y-102484000D03*
X206624000Y-99944000D03*
X206624000Y-97404000D03*
%TD*%
D17*
%TO.C,Brd1*%
X155592000Y-99060000D03*
X158132000Y-99060000D03*
X160672000Y-99060000D03*
X163212000Y-99060000D03*
%TD*%
D18*
%TO.C,SW2*%
X100410000Y-70485000D03*
D19*
X102910000Y-70485000D03*
X105410000Y-70485000D03*
X100410000Y-76485000D03*
X102910000Y-76485000D03*
X105410000Y-76485000D03*
%TD*%
D20*
%TO.C,R1*%
X176276000Y-107724000D03*
D16*
X186436000Y-107724000D03*
%TD*%
D20*
%TO.C,R8*%
X120015000Y-94615000D03*
D16*
X120015000Y-84455000D03*
%TD*%
D21*
%TO.C,U4*%
X115316000Y-121031000D03*
D22*
X115316000Y-118491000D03*
X115316000Y-115951000D03*
X115316000Y-113411000D03*
X115316000Y-110871000D03*
X115316000Y-108331000D03*
X115316000Y-105791000D03*
X115316000Y-103251000D03*
X115316000Y-100711000D03*
D23*
X97536000Y-121031000D03*
X97536000Y-100711000D03*
%TD*%
D11*
%TO.C,UP1*%
X143891000Y-132770000D03*
X137391000Y-132770000D03*
X143891000Y-128270000D03*
X137391000Y-128270000D03*
%TD*%
D20*
%TO.C,C1*%
X100370000Y-93345000D03*
X105370000Y-93345000D03*
%TD*%
D11*
%TO.C,CANCEL1*%
X181991000Y-137850000D03*
X175491000Y-137850000D03*
X181991000Y-133350000D03*
X175491000Y-133350000D03*
%TD*%
%TO.C,DOWN1*%
X143891000Y-144490000D03*
X137391000Y-144490000D03*
X143891000Y-139990000D03*
X137391000Y-139990000D03*
%TD*%
D20*
%TO.C,R5*%
X176276000Y-123444000D03*
D16*
X186436000Y-123444000D03*
%TD*%
D20*
%TO.C,R4*%
X176276000Y-119394000D03*
D16*
X186436000Y-119394000D03*
%TD*%
D20*
%TO.C,R2*%
X186436000Y-111534000D03*
D16*
X176276000Y-111534000D03*
%TD*%
D24*
%TO.C,J3*%
X117797500Y-79660000D03*
D25*
X117797500Y-73660000D03*
D26*
X113097500Y-76660000D03*
%TD*%
D18*
%TO.C,SW1*%
X199390000Y-133065000D03*
D19*
X201890000Y-133065000D03*
X204390000Y-133065000D03*
X199390000Y-139065000D03*
X201890000Y-139065000D03*
X204390000Y-139065000D03*
%TD*%
D10*
%TO.C,JP1*%
X201549000Y-88900000D03*
D14*
X204089000Y-88900000D03*
X206629000Y-88900000D03*
%TD*%
D15*
%TO.C,U5*%
X134620000Y-99500000D03*
D16*
X134620000Y-102040000D03*
X134620000Y-104580000D03*
X134620000Y-107120000D03*
X134620000Y-109660000D03*
X134620000Y-112200000D03*
X134620000Y-114740000D03*
X134620000Y-117280000D03*
X134620000Y-119820000D03*
X134620000Y-122360000D03*
X142240000Y-122360000D03*
X142240000Y-119820000D03*
X142240000Y-117280000D03*
X142240000Y-114740000D03*
X142240000Y-112200000D03*
X142240000Y-109660000D03*
X142240000Y-107120000D03*
X142240000Y-104580000D03*
X142240000Y-102040000D03*
X142240000Y-99500000D03*
%TD*%
D20*
%TO.C,R3*%
X176276000Y-115344000D03*
D16*
X186436000Y-115344000D03*
%TD*%
D18*
%TO.C,D2*%
X97790000Y-84455000D03*
D19*
X100330000Y-84455000D03*
%TD*%
D15*
%TO.C,U3*%
X121920000Y-99500000D03*
D16*
X121920000Y-102040000D03*
X121920000Y-104580000D03*
X121920000Y-107120000D03*
X121920000Y-109660000D03*
X121920000Y-112200000D03*
X121920000Y-114740000D03*
X121920000Y-117280000D03*
X121920000Y-119820000D03*
X121920000Y-122360000D03*
X129540000Y-122360000D03*
X129540000Y-119820000D03*
X129540000Y-117280000D03*
X129540000Y-114740000D03*
X129540000Y-112200000D03*
X129540000Y-109660000D03*
X129540000Y-107120000D03*
X129540000Y-104580000D03*
X129540000Y-102040000D03*
X129540000Y-99500000D03*
%TD*%
D18*
%TO.C,D1*%
X105405000Y-84455000D03*
D19*
X107945000Y-84455000D03*
%TD*%
D20*
%TO.C,R7*%
X115965000Y-94615000D03*
D16*
X115965000Y-84455000D03*
%TD*%
D11*
%TO.C,RESET1*%
X184606000Y-102196000D03*
X178106000Y-102196000D03*
X184606000Y-97696000D03*
X178106000Y-97696000D03*
%TD*%
M02*
